<svg id="Слой_1" data-name="Слой 1" xmlns="http://www.w3.org/2000/svg" viewBox="0 0 1024 1023.99"><defs><style>.cls-1{fill:#8dc575;}</style></defs><title>b-1</title><path class="cls-1" d="M320.3,103c9-54.8,59-103,131.8-103,37.1,0,64,20,79.5,45.6,11.5,18.9,17.1,40.9,18.9,61.7a123.57,123.57,0,0,1,40.4-7.1c36.6,0,63.8,19.4,80.2,44.2C686.6,168,693,196.7,693,223v30q.15,149.1.6,298.2a234.47,234.47,0,0,0,2.7,36.5l1.3,6.4.6-.6c8.5-8,16.1-16,24.6-24.9l12.4-13c13.2-13.6,28.6-28.6,46.9-41.1,39.6-27,88.2-39.6,153.5-22.5,25.7,6.7,41.8,25,50.4,43.8,8.1,17.9,10.4,37.8,9.7,55.5-1.3,33.4-14,74.4-40.8,100.3l-1.7,1.7c-10.1,10.5-20.2,20.9-30.5,31.2-20.1,20.3-47.6,47.9-77.4,76.7q-44.55,43.5-91.1,84.8c-27.5,24.1-55.2,46.6-76.5,59a445.56,445.56,0,0,1-251.1,78.9,43.84,43.84,0,0,1-16.4-3.1,41.64,41.64,0,0,1-13.9-9.2A42.7,42.7,0,0,1,426,938.5,360.48,360.48,0,0,0,630.3,874c1.2-.8,2.4-1.6,3.6-2.3,12.9-7.3,35.4-24.7,64-49.9q45-39.9,88-81.9,53.7-52.2,105.9-106l2.1-2.3a43.87,43.87,0,0,0,10.9-17.5,86.4,86.4,0,0,0,5.5-26.3,47,47,0,0,0-1.3-14.5c-38.4-9-60.5-.9-78.8,11.6-11,7.5-21.6,17.5-33.8,30.1l-9.9,10.4c-9.3,9.7-19.7,20.7-30.2,30.5l-.1.1c-17.9,16.6-40.1,31.4-66,32-30.2.7-50-17.8-60.6-34.9-9.9-16.1-14.8-35.2-17.5-51.3a314.78,314.78,0,0,1-3.9-50.3q-.45-149.25-.6-298.4V223c0-13.8-3.5-25.1-7.8-31.6a14.37,14.37,0,0,0-4.6-4.9,8.17,8.17,0,0,0-4.4-1c-8.4,0-19.2,3.6-27.4,10.8a34,34,0,0,0-12.3,26.6V456.5a42.65,42.65,0,1,1-85.3,0V122.8c0-15.1-3.3-26.7-7.1-33a11.57,11.57,0,0,0-3.4-3.9c-.2-.2-.9-.6-3.2-.6-36.7,0-48.3,24.1-47.9,36.1V123l-.3,78.3a24.1,24.1,0,0,1,0,3.8L403,459.5a42.7,42.7,0,0,1-85.4-.3l.9-252c-2.1-8.7-5.3-13.8-8-16.5-2-2-6.1-5.2-17.1-5.2a38.92,38.92,0,0,0-25.8,9.4c-5.7,5.1-10.8,13.6-10.8,28V520.7a42.7,42.7,0,0,1-85.4.4V349.7a36.52,36.52,0,0,0-5-6.7,12.58,12.58,0,0,0-5.5-3.6c-1.2-.3-4.8-1.1-12.5,1.5-17,5.8-25.4,15.5-30.1,28.4-5.4,14.9-6.4,36.4-1.1,63.1,39.9,201.9,61.4,302.5,78.8,352.1,15.4,44.1,45.7,83.2,86.9,111.1a42.69,42.69,0,0,1-47.8,70.7c-55.8-37.8-97.9-91.4-119.6-153.6C95.7,756,72.9,647.8,33.6,449.1c-7-35.4-8-74,4.6-108.7,13.2-36.7,40.7-66,83.1-80.2,17.4-5.9,34.3-7.6,50.2-5.4V223.1c0-79.6,62.7-122.8,121.9-122.8A110.61,110.61,0,0,1,320.3,103Z"/></svg>