<svg id="Слой_1" data-name="Слой 1" xmlns="http://www.w3.org/2000/svg" viewBox="0 0 1024 1024"><defs><style>.cls-1{fill:#8dc575;}</style></defs><title>b-2</title><path class="cls-1" d="M861.68,91.6,841,112.3l-55.9,55.9L702,251.3,601.18,352.1,490.08,463.2,378.68,574.6,274.18,679.1l-87.8,87.8-63.5,63.5c-10,10-20,19.9-29.9,29.9l-1.3,1.3A52.05,52.05,0,0,0,77.08,897c0,12.3,5.4,26.9,14.6,35.4,9.5,8.7,22,15.2,35.4,14.6s25.8-5.1,35.4-14.6l20.7-20.7,55.9-55.9,83.1-83.1L423,671.9l111.1-111.1,111.4-111.4L750,344.9l87.8-87.8,63.5-63.5c10-10,20-19.9,29.9-29.9l1.3-1.3a51.41,51.41,0,0,0,14.6-35.4c0-12.3-5.4-26.9-14.6-35.4-9.5-8.7-22-15.2-35.4-14.6s-25.8,5.1-35.4,14.6Z"/><path class="cls-1" d="M253,387.8h-25.5c-9.5,0-19.2.5-28.7-.7l13.3,1.8a83.34,83.34,0,0,1-20.8-5.7c4,1.7,8,3.4,11.9,5A84.86,84.86,0,0,1,185,377.6c3.4,2.6,6.7,5.2,10.1,7.8a86.43,86.43,0,0,1-15.7-15.7c2.6,3.4,5.2,6.7,7.8,10.1a87.36,87.36,0,0,1-10.6-18.2c1.7,4,3.4,8,5,11.9a92.86,92.86,0,0,1-5.7-20.8c.6,4.4,1.2,8.9,1.8,13.3-1-7.6-.7-15.2-.7-22.8V224.7c0-8.7-.4-17.5.7-26.1-.6,4.4-1.2,8.9-1.8,13.3a83.34,83.34,0,0,1,5.7-20.8c-1.7,4-3.4,8-5,11.9a84.86,84.86,0,0,1,10.6-18.2c-2.6,3.4-5.2,6.7-7.8,10.1a86.43,86.43,0,0,1,15.7-15.7c-3.4,2.6-6.7,5.2-10.1,7.8a87.36,87.36,0,0,1,18.2-10.6c-4,1.7-8,3.4-11.9,5a92.86,92.86,0,0,1,20.8-5.7l-13.3,1.8c10.8-1.4,21.8-.7,32.6-.7s21.9-.6,32.6.7l-13.3-1.8a83.34,83.34,0,0,1,20.8,5.7c-4-1.7-8-3.4-11.9-5a84.86,84.86,0,0,1,18.2,10.6c-3.4-2.6-6.7-5.2-10.1-7.8a86.43,86.43,0,0,1,15.7,15.7c-2.6-3.4-5.2-6.7-7.8-10.1a87.36,87.36,0,0,1,10.6,18.2c-1.7-4-3.4-8-5-11.9a92.86,92.86,0,0,1,5.7,20.8c-.6-4.4-1.2-8.9-1.8-13.3,1,7.6.7,15.2.7,22.8V339.9c0,8.7.4,17.5-.7,26.1.6-4.4,1.2-8.9,1.8-13.3a83.34,83.34,0,0,1-5.7,20.8c1.7-4,3.4-8,5-11.9a84.86,84.86,0,0,1-10.6,18.2c2.6-3.4,5.2-6.7,7.8-10.1a89.73,89.73,0,0,1-15.7,15.7c3.4-2.6,6.7-5.2,10.1-7.8a87.36,87.36,0,0,1-18.2,10.6c4-1.7,8-3.4,11.9-5a92.86,92.86,0,0,1-20.8,5.7l13.3-1.8a99.93,99.93,0,0,1-11,.7,52.05,52.05,0,0,0-35.4,14.6c-8.7,8.7-15.2,22.9-14.6,35.4.6,12.9,4.8,26.3,14.6,35.4,9.7,8.9,21.8,14.8,35.4,14.6,34-.3,65.3-13.3,90.5-35.8a122.21,122.21,0,0,0,26.3-33.9c9.1-17.6,13.3-33.8,15.5-53.4.8-7.7.6-15.5.6-23.2V219.2a200.06,200.06,0,0,0-3.4-39.3,118.93,118.93,0,0,0-16.6-40.2c-10.4-16.1-22.3-27.8-37.5-39.1-21.6-16.1-49.6-23.7-76.3-23.8h-38.8c-25.2,0-50.6,5.9-72.1,19.3A136.83,136.83,0,0,0,82.68,172c-7.8,25-5.6,52.8-5.6,78.4v88c0,6.3-.1,12.5,0,18.8a135.17,135.17,0,0,0,36.7,89.3A120.32,120.32,0,0,0,148,472.4c17.9,8.9,33.8,13,53.5,15,12.9,1.3,26.2.4,39.1.4H253a52.05,52.05,0,0,0,35.4-14.6c8.7-8.7,15.2-22.9,14.6-35.4-.6-12.9-4.8-26.3-14.6-35.4C278.58,393.5,266.48,387.8,253,387.8Z"/><path class="cls-1" d="M814.28,847h-25.5c-9.5,0-19.2.5-28.7-.7l13.3,1.8a83.34,83.34,0,0,1-20.8-5.7c4,1.7,8,3.4,11.9,5a84.86,84.86,0,0,1-18.2-10.6c3.4,2.6,6.7,5.2,10.1,7.8a86.43,86.43,0,0,1-15.7-15.7c2.6,3.4,5.2,6.7,7.8,10.1a87.36,87.36,0,0,1-10.6-18.2c1.7,4,3.4,8,5,11.9a92.86,92.86,0,0,1-5.7-20.8c.6,4.4,1.2,8.9,1.8,13.3-1-7.6-.7-15.2-.7-22.8V683.9c0-8.7-.4-17.5.7-26.1-.6,4.4-1.2,8.9-1.8,13.3a83.34,83.34,0,0,1,5.7-20.8c-1.7,4-3.4,8-5,11.9a84.86,84.86,0,0,1,10.6-18.2c-2.6,3.4-5.2,6.7-7.8,10.1a86.43,86.43,0,0,1,15.7-15.7c-3.4,2.6-6.7,5.2-10.1,7.8a87.36,87.36,0,0,1,18.2-10.6c-4,1.7-8,3.4-11.9,5a92.86,92.86,0,0,1,20.8-5.7l-13.3,1.8c10.8-1.4,21.8-.7,32.6-.7s21.9-.6,32.6.7L812,634.9a83.34,83.34,0,0,1,20.8,5.7c-4-1.7-8-3.4-11.9-5a84.86,84.86,0,0,1,18.2,10.6c-3.4-2.6-6.7-5.2-10.1-7.8a89.73,89.73,0,0,1,15.7,15.7c-2.6-3.4-5.2-6.7-7.8-10.1a87.36,87.36,0,0,1,10.6,18.2c-1.7-4-3.4-8-5-11.9a92.86,92.86,0,0,1,5.7,20.8c-.6-4.4-1.2-8.9-1.8-13.3,1,7.6.7,15.2.7,22.8V799.1c0,8.7.4,17.5-.7,26.1.6-4.4,1.2-8.9,1.8-13.3a83.34,83.34,0,0,1-5.7,20.8c1.7-4,3.4-8,5-11.9a84.86,84.86,0,0,1-10.6,18.2c2.6-3.4,5.2-6.7,7.8-10.1A89.73,89.73,0,0,1,829,844.6c3.4-2.6,6.7-5.2,10.1-7.8a87.36,87.36,0,0,1-18.2,10.6c4-1.7,8-3.4,11.9-5a92.86,92.86,0,0,1-20.8,5.7l13.3-1.8a98.38,98.38,0,0,1-11,.7,52.05,52.05,0,0,0-35.4,14.6c-8.7,8.7-15.2,22.9-14.6,35.4.6,12.9,4.8,26.3,14.6,35.4,9.7,8.9,21.8,14.8,35.4,14.6,34-.3,65.3-13.3,90.5-35.8a122.21,122.21,0,0,0,26.3-33.9c9.1-17.6,13.3-33.8,15.5-53.4.8-7.7.6-15.5.6-23.2V678.4a200.06,200.06,0,0,0-3.4-39.3,118.93,118.93,0,0,0-16.6-40.2c-10.4-16.1-22.3-27.8-37.5-39.1-21.6-16.1-49.6-23.7-76.3-23.8h-38.8c-25.2,0-50.6,5.9-72.1,19.3A136.83,136.83,0,0,0,644,631.2c-7.7,24.8-5.4,52.6-5.4,78.3v88c0,6.3-.1,12.5,0,18.8a135.17,135.17,0,0,0,36.7,89.3,120.32,120.32,0,0,0,34.2,25.9c17.9,8.9,33.8,13,53.5,15,12.9,1.3,26.2.4,39.1.4h12.4a52.05,52.05,0,0,0,35.4-14.6c8.7-8.7,15.2-22.9,14.6-35.4-.6-12.9-4.8-26.3-14.6-35.4C839.88,852.7,827.88,847,814.28,847Z"/></svg>