<svg id="Capa_1" data-name="Capa 1" xmlns="http://www.w3.org/2000/svg" viewBox="0 0 512 512"><defs><style>.cls-1{fill:#8dc575;}</style></defs><title>b-3</title><path class="cls-1" d="M256,0C114.83,0,0,114.83,0,256S114.83,512,256,512,512,397.15,512,256,397.17,0,256,0Zm0,472.34c-119.27,0-216.34-97-216.34-216.34S136.73,39.66,256,39.66,472.34,136.71,472.34,256,375.27,472.34,256,472.34Z"/><path class="cls-1" d="M373.45,167a19.85,19.85,0,0,0-28,1.35l-121,133.2L166.05,242.1a19.82,19.82,0,1,0-28.27,27.8l73.15,74.36a19.77,19.77,0,0,0,14.13,5.93,2.42,2.42,0,0,1,.38,0,19.88,19.88,0,0,0,14.3-6.5L374.8,195A19.84,19.84,0,0,0,373.45,167Z"/></svg>