<svg id="Слой_1" data-name="Слой 1" xmlns="http://www.w3.org/2000/svg" viewBox="0 0 100 100"><defs><style>.cls-1{fill:#8dc575;}</style></defs><title>g-1</title><rect class="cls-1" x="21.45" y="28.25" width="26.2" height="6.1"/><rect class="cls-1" x="21.25" y="75.25" width="12.6" height="6.1"/><rect class="cls-1" x="21.25" y="59.65" width="12.4" height="6"/><rect class="cls-1" x="21.35" y="44.75" width="18.7" height="5.7"/><path class="cls-1" d="M82.85,48V18.25L66.15,1.55H6.25v96.6H62a23.08,23.08,0,0,0,3.7.3A28.22,28.22,0,0,0,82.85,48ZM64.35,6.45,77.85,20H64.35ZM12,92.65V7.15h47.9v17.4h17.4v20a27.61,27.61,0,0,0-11.5-2.5,28.36,28.36,0,0,0-28.2,28.2,27.75,27.75,0,0,0,11.1,22.3H12Zm53.8.6a22.9,22.9,0,1,1,22.9-22.9A23,23,0,0,1,65.75,93.25Z"/><path class="cls-1" d="M74.25,62l-11.5,11.5L57.25,68a2.48,2.48,0,0,0-3.4,0,2.34,2.34,0,0,0-.7,1.7,2.61,2.61,0,0,0,.7,1.7l7.2,7.2a2.34,2.34,0,0,0,1.7.7,2.19,2.19,0,0,0,1.7-.7l13.2-13.2a2.34,2.34,0,0,0,.7-1.7,2.61,2.61,0,0,0-.7-1.7A2.48,2.48,0,0,0,74.25,62Z"/></svg>